<?xml version="1.0" encoding="utf-8"?>
<!-- Generator: Adobe Illustrator 20.0.0, SVG Export Plug-In . SVG Version: 6.00 Build 0)  -->
<svg version="1.1" id="Layer_1" xmlns="http://www.w3.org/2000/svg" xmlns:xlink="http://www.w3.org/1999/xlink" x="0px" y="0px"
	 viewBox="0 0 57 57" style="enable-background:new 0 0 57 57;" xml:space="preserve">
<style type="text/css">
	.st0{fill:#D28DE0;}
</style>
<title>Artboard 1</title>
<g>
	<g>
		<path class="st0" d="M33.794,0H23.206C10.411,0,0,10.411,0,23.207v10.586C0,46.59,10.411,57,23.206,57h10.589
			C46.589,57,57,46.59,57,33.793V23.207C57,10.411,46.589,0,33.794,0z M55.543,33.793c0,11.992-9.758,21.749-21.749,21.749H23.206
			c-11.991,0-21.749-9.757-21.749-21.749V23.207c0-11.992,9.758-21.749,21.749-21.749h10.589c11.991,0,21.749,9.756,21.749,21.749
			V33.793z M38.88,7.632c0.403,0,0.728-0.326,0.728-0.729c0-0.403-0.325-0.73-0.728-0.73c-0.081,0-0.164-0.011-0.242-0.03
			c-5.994-1.572-14.3-1.572-20.284-0.001c-0.076,0.019-0.157,0.03-0.233,0.03c-0.404,0-0.729,0.326-0.729,0.729
			c0,0.404,0.325,0.73,0.729,0.73c0.199,0,0.401-0.026,0.6-0.077c5.752-1.509,13.783-1.512,19.554,0.002
			C38.476,7.606,38.678,7.632,38.88,7.632z M41.56,26.419v-7.454c0-0.336-0.273-0.607-0.607-0.607c-0.335,0-0.608,0.272-0.608,0.607
			v7.454c-1.361,0.291-2.406,1.444-2.406,2.891c0,1.445,1.045,2.601,2.406,2.89v7.454c0,0.336,0.273,0.607,0.608,0.607
			c0.335,0,0.607-0.272,0.607-0.607v-7.454c1.361-0.29,2.406-1.445,2.406-2.89C43.966,27.863,42.92,26.71,41.56,26.419z
			 M40.952,31.109c-0.992,0-1.799-0.807-1.799-1.799c0-0.992,0.807-1.799,1.799-1.799s1.799,0.807,1.799,1.799
			C42.751,30.302,41.944,31.109,40.952,31.109z"/>
	</g>
</g>
</svg>
