<?xml version="1.0" encoding="utf-8"?>
<!-- Generator: Adobe Illustrator 20.0.0, SVG Export Plug-In . SVG Version: 6.00 Build 0)  -->
<svg version="1.1" id="Layer_1" xmlns="http://www.w3.org/2000/svg" xmlns:xlink="http://www.w3.org/1999/xlink" x="0px" y="0px"
	 viewBox="0 0 48 57" style="enable-background:new 0 0 48 57;" xml:space="preserve">
<style type="text/css">
	.st0{fill:#FFFFFF;}
</style>
<title>Artboard 1</title>
<path class="st0" d="M3.803,57.005c-0.385,0-0.698-0.324-0.698-0.722c0-0.398,0.313-0.722,0.698-0.722h14.038v-6.869h-5.756
	C5.42,48.691,0,43.198,0,36.445V23.08c0-6.753,5.42-12.247,12.084-12.247H25.29c6.664,0,12.084,5.494,12.084,12.247v13.365
	c0,6.753-5.42,12.246-12.084,12.246h-6.049v6.869h14.296c0.386,0,0.699,0.324,0.699,0.722c0,0.398-0.313,0.722-0.699,0.722H3.803z
	 M12.084,12.278c-5.893,0-10.687,4.846-10.687,10.802v13.365c0,5.956,4.794,10.802,10.687,10.802H25.29
	c5.893,0,10.684-4.846,10.684-10.802V23.08c0-5.957-4.791-10.802-10.684-10.802H12.084z M42.699,17.762
	c-0.385,0-0.698-0.324-0.698-0.722c0-5.957-4.792-10.802-10.684-10.802c-0.386,0-0.702-0.324-0.702-0.722
	c0-0.398,0.316-0.722,0.702-0.722c6.664,0,12.084,5.493,12.084,12.246C43.401,17.439,43.085,17.762,42.699,17.762z M47.294,9.417
	c-0.386,0-0.701-0.324-0.701-0.722c0-3.998-3.217-7.25-7.174-7.25c-0.386,0-0.699-0.324-0.699-0.722C38.72,0.324,39.033,0,39.418,0
	c4.727,0,8.574,3.9,8.574,8.695C47.992,9.093,47.679,9.417,47.294,9.417z"/>
</svg>
