<?xml version="1.0" encoding="utf-8"?>
<!-- Generator: Adobe Illustrator 18.1.0, SVG Export Plug-In . SVG Version: 6.00 Build 0)  -->
<!DOCTYPE svg PUBLIC "-//W3C//DTD SVG 1.1//EN" "http://www.w3.org/Graphics/SVG/1.1/DTD/svg11.dtd">
<svg version="1.1" id="Layer_1" xmlns="http://www.w3.org/2000/svg" xmlns:xlink="http://www.w3.org/1999/xlink" x="0px" y="0px"
	 viewBox="0 0 20.741 28.006" enable-background="new 0 0 20.741 28.006" xml:space="preserve">
<g>
	<path fill="none" stroke="#FFFFFF" stroke-miterlimit="10" d="M10.369,1.394C9.566,3.481,8.313,5.638,6.567,7.95
		C6.194,8.459,5.751,9.015,5.281,9.594C3.152,12.238,0.5,15.529,0.5,19.039c0,3.806,2.758,6.985,7.028,8.098l1.048,0.206
		c0.331,0.074,0.561,0.091,0.787,0.109c0.337,0.045,0.558,0.054,0.767,0.054l0.427-0.004c0.017-0.001,0.036,0,0.054,0
		c0.187,0,0.381-0.001,0.562-0.032c0.439-0.037,0.712-0.06,0.986-0.102l0.687-0.146c0.247-0.065,0.349-0.092,0.45-0.111
		c1.293-0.34,2.485-0.891,3.512-1.631c2.182-1.573,3.433-3.921,3.433-6.442c-0.021-3.157-2.188-6.164-4.217-8.734l-0.921-1.149
		c-0.347-0.419-0.68-0.829-0.971-1.226C12.406,5.623,11.166,3.471,10.369,1.394z"/>
	<g>
		
			<line fill="none" stroke="#FFFFFF" stroke-linecap="round" stroke-miterlimit="10" x1="6.577" y1="17.871" x2="14.164" y2="17.871"/>
		
			<line fill="none" stroke="#FFFFFF" stroke-linecap="round" stroke-miterlimit="10" x1="10.371" y1="14.077" x2="10.371" y2="21.664"/>
	</g>
</g>
</svg>
