<?xml version="1.0" encoding="utf-8"?>
<!-- Generator: Adobe Illustrator 18.1.0, SVG Export Plug-In . SVG Version: 6.00 Build 0)  -->
<!DOCTYPE svg PUBLIC "-//W3C//DTD SVG 1.1//EN" "http://www.w3.org/Graphics/SVG/1.1/DTD/svg11.dtd">
<svg version="1.1" id="Layer_1" xmlns="http://www.w3.org/2000/svg" xmlns:xlink="http://www.w3.org/1999/xlink" x="0px" y="0px"
	 viewBox="0 0 27.386 27.396" enable-background="new 0 0 27.386 27.396" xml:space="preserve">
<g>
	<g>
		<path fill="none" stroke="#FFFFFF" stroke-miterlimit="10" d="M26.878,13.064c0-6.102-5.111-6.7-5.175-6.707
			c-4.37-0.367-6.301,3.997-6.488,4.441c-0.007,0.007-0.007,0.013-0.013,0.019c-0.148,0.341-0.277,0.431-0.328,0.431
			c-0.084,0-0.232-0.148-0.315-0.283c-1.126-1.873,1.268-3.939,1.274-3.952c1.101-0.843,1.525-1.867,1.68-2.401
			c0.09-0.315,0.103-0.521,0.103-0.534c0.013-0.116,0.019-0.232,0.026-0.341c0.006-0.225-0.006-0.438-0.045-0.644
			c-0.064-0.38-0.193-0.727-0.399-1.03C16.264,0.654,14.173,0.5,13.317,0.5c-0.161,0-0.264,0.006-0.264,0.006
			c-1.937,0-3.514,0.515-4.699,1.519C7.955,2.367,7.64,2.733,7.389,3.094C7.234,3.313,7.099,3.532,6.99,3.738
			C6.861,3.982,6.758,4.214,6.681,4.413C6.41,5.121,6.352,5.649,6.346,5.675c-0.367,4.512,4.428,6.488,4.473,6.507
			c0,0,0.013,0.006,0.019,0.006c0.315,0.142,0.405,0.27,0.405,0.315c0.006,0.084-0.142,0.238-0.277,0.322
			c-0.341,0.199-0.702,0.302-1.081,0.302c-1.506,0-2.871-1.577-2.871-1.577C5.76,9.91,4.138,9.769,4.08,9.769
			c-1.068-0.122-1.88,0.167-2.491,0.817c-1.229,1.313-1.088,3.669-1.081,3.746c0,6.102,5.111,6.7,5.168,6.707
			c4.357,0.367,6.295-3.978,6.494-4.441c0-0.007,0.007-0.013,0.007-0.019c0.148-0.341,0.283-0.431,0.328-0.431
			c0.084,0,0.238,0.148,0.315,0.283c1.126,1.873-1.262,3.939-1.274,3.952c-1.101,0.843-1.519,1.86-1.673,2.394
			c-0.09,0.322-0.109,0.528-0.109,0.541c-0.013,0.129-0.019,0.251-0.026,0.373c0,0.225,0.013,0.438,0.052,0.644
			c0.064,0.348,0.187,0.669,0.367,0.953c0.92,1.448,3.038,1.609,3.907,1.609c0.167,0,0.27-0.006,0.27-0.006
			c1.937,0,3.521-0.515,4.699-1.525c0.386-0.328,0.695-0.682,0.94-1.03c0.161-0.219,0.29-0.438,0.399-0.644
			c0.142-0.257,0.245-0.496,0.328-0.708c0.277-0.708,0.335-1.236,0.335-1.268c0.367-4.506-4.422-6.488-4.473-6.507
			c-0.007,0-0.013,0-0.013,0c-0.322-0.148-0.405-0.27-0.412-0.315c-0.006-0.084,0.148-0.238,0.283-0.322
			c0.335-0.2,0.702-0.303,1.081-0.303c1.506,0,2.864,1.577,2.864,1.577c1.262,1.641,2.884,1.783,2.942,1.783
			c1.062,0.116,1.873-0.167,2.491-0.824C27.02,15.497,26.885,13.141,26.878,13.064z"/>
	</g>
</g>
</svg>
