<?xml version="1.0" encoding="utf-8"?>
<!-- Generator: Adobe Illustrator 18.1.0, SVG Export Plug-In . SVG Version: 6.00 Build 0)  -->
<!DOCTYPE svg PUBLIC "-//W3C//DTD SVG 1.1//EN" "http://www.w3.org/Graphics/SVG/1.1/DTD/svg11.dtd">
<svg version="1.1" id="Layer_1" xmlns="http://www.w3.org/2000/svg" xmlns:xlink="http://www.w3.org/1999/xlink" x="0px" y="0px"
	 viewBox="0 0 24.389 26.5" enable-background="new 0 0 24.389 26.5" xml:space="preserve">
<g>
	<g>
		<g>
			<g>
				<line fill="none" stroke="#36C3EA" stroke-linecap="round" stroke-miterlimit="10" x1="12.195" y1="0" x2="12.195" y2="26.5"/>
				<polyline fill="none" stroke="#36C3EA" stroke-linecap="round" stroke-miterlimit="10" points="9.767,24.703 12.195,22.276 
					14.622,24.703 				"/>
				<polyline fill="none" stroke="#36C3EA" stroke-linecap="round" stroke-miterlimit="10" points="9.767,21.769 12.195,19.342 
					14.622,21.769 				"/>
				<polyline fill="none" stroke="#36C3EA" stroke-linecap="round" stroke-miterlimit="10" points="14.622,1.797 12.195,4.224 
					9.767,1.797 				"/>
				<polyline fill="none" stroke="#36C3EA" stroke-linecap="round" stroke-miterlimit="10" points="14.622,4.731 12.195,7.158 
					9.767,4.731 				"/>
			</g>
			<line fill="none" stroke="#36C3EA" stroke-linecap="round" stroke-miterlimit="10" x1="12.195" y1="0" x2="12.195" y2="26.5"/>
			<polyline fill="none" stroke="#36C3EA" stroke-linecap="round" stroke-miterlimit="10" points="9.767,24.703 12.195,22.276 
				14.622,24.703 			"/>
			<polyline fill="none" stroke="#36C3EA" stroke-linecap="round" stroke-miterlimit="10" points="9.767,21.769 12.195,19.342 
				14.622,21.769 			"/>
		</g>
		<g>
			<g>
				
					<line fill="none" stroke="#36C3EA" stroke-linecap="round" stroke-miterlimit="10" x1="23.889" y1="7.021" x2="0.5" y2="19.479"/>
				<polyline fill="none" stroke="#36C3EA" stroke-linecap="round" stroke-miterlimit="10" points="0.945,16.492 4.229,17.493 
					3.227,20.776 				"/>
				<polyline fill="none" stroke="#36C3EA" stroke-linecap="round" stroke-miterlimit="10" points="3.535,15.112 6.818,16.114 
					5.817,19.397 				"/>
				<polyline fill="none" stroke="#36C3EA" stroke-linecap="round" stroke-miterlimit="10" points="23.444,10.008 20.161,9.007 
					21.162,5.724 				"/>
				<polyline fill="none" stroke="#36C3EA" stroke-linecap="round" stroke-miterlimit="10" points="20.855,11.388 17.571,10.386 
					18.573,7.103 				"/>
			</g>
			
				<line fill="none" stroke="#36C3EA" stroke-linecap="round" stroke-miterlimit="10" x1="23.889" y1="7.021" x2="0.5" y2="19.479"/>
			<polyline fill="none" stroke="#36C3EA" stroke-linecap="round" stroke-miterlimit="10" points="0.945,16.492 4.229,17.493 
				3.227,20.776 			"/>
			<polyline fill="none" stroke="#36C3EA" stroke-linecap="round" stroke-miterlimit="10" points="3.535,15.112 6.818,16.114 
				5.817,19.397 			"/>
		</g>
		<g>
			<g>
				
					<line fill="none" stroke="#36C3EA" stroke-linecap="round" stroke-miterlimit="10" x1="23.853" y1="19.546" x2="0.536" y2="6.954"/>
				<polyline fill="none" stroke="#36C3EA" stroke-linecap="round" stroke-miterlimit="10" points="3.271,5.672 4.253,8.961 
					0.964,9.944 				"/>
				<polyline fill="none" stroke="#36C3EA" stroke-linecap="round" stroke-miterlimit="10" points="5.852,7.066 6.835,10.355 
					3.545,11.338 				"/>
				<polyline fill="none" stroke="#36C3EA" stroke-linecap="round" stroke-miterlimit="10" points="21.119,20.828 20.136,17.539 
					23.425,16.556 				"/>
				<polyline fill="none" stroke="#36C3EA" stroke-linecap="round" stroke-miterlimit="10" points="18.537,19.434 17.555,16.145 
					20.844,15.162 				"/>
			</g>
			
				<line fill="none" stroke="#36C3EA" stroke-linecap="round" stroke-miterlimit="10" x1="23.853" y1="19.546" x2="0.536" y2="6.954"/>
			<polyline fill="none" stroke="#36C3EA" stroke-linecap="round" stroke-miterlimit="10" points="3.271,5.672 4.253,8.961 
				0.964,9.944 			"/>
			<polyline fill="none" stroke="#36C3EA" stroke-linecap="round" stroke-miterlimit="10" points="5.852,7.066 6.835,10.355 
				3.545,11.338 			"/>
		</g>
	</g>
</g>
</svg>
